<?xml version="1.0" encoding="UTF-8" standalone="no"?>
<!-- Created with svg-rocco-library 1.1 -->
<svg xmlns:svg="http://www.w3.org/2000/svg" xmlns="http://www.w3.org/2000/svg" version="1.0" width="550" height="350" id="rock">
<g id="edge" style="fill:none;stroke:#000000;stroke-width:1.5;stroke-opacity:1;stroke-dasharray:none">
<path d="M 62.9534 119.417 C 62.9534 119.417 62.9534 119.417 81.7557 67.5899 C 133.297 87.6624 81.7557 67.5899 133.297 87.6624 C 98.3 107.074 133.297 87.6624 98.3 107.074 C 81.0367 135.687 98.3 107.074 81.0367 135.687 C 107.26 112.453 81.0367 135.687 107.26 112.453 C 122.486 65.9449 107.26 112.453 122.486 65.9449 C 130.163 105.201 130.163 105.201 130.163 105.201 "/>
<path d="M 162.953 119.417 C 162.953 119.417 154.769 101.442 181.756 67.5899 C 225.113 69.6874 203.39 67.7552 233.297 87.6624 C 219.935 107.239 228.864 85.3618 198.3 107.074 C 176.603 133.386 187.428 120.035 181.037 135.687 C 196.389 125.415 183.786 141.506 207.26 112.453 C 225.235 71.7634 209.147 91.012 222.486 65.9449 C 232.05 83.7596 230.163 105.201 230.163 105.201 "/>
<path d="M 262.953 119.417 C 262.953 119.417 246.584 83.4674 281.756 67.5899 C 316.928 51.7123 325.025 67.9205 333.297 87.6624 C 341.569 107.404 324.43 83.0612 298.3 107.074 C 272.17 131.086 276.557 132.997 281.037 135.687 C 285.517 138.377 286.536 147.324 307.26 112.453 C 327.985 77.5819 311.034 69.5711 322.486 65.9449 C 333.937 62.3187 330.163 105.201 330.163 105.201 "/>
<path d="M 362.953 119.417 C 362.953 119.417 338.399 65.4924 381.756 67.5899 C 408.743 33.7373 446.66 68.0858 433.297 87.6624 C 463.204 107.57 419.997 80.7607 398.3 107.074 C 367.736 128.785 365.685 145.959 381.037 135.687 C 374.645 151.339 389.285 153.143 407.26 112.453 C 430.734 83.4004 412.921 48.1302 422.486 65.9449 C 435.824 40.8778 430.163 105.201 430.163 105.201 "/>
<path d="M 462.953 119.417 C 462.953 119.417 430.214 47.5174 481.756 67.5899 C 500.558 15.7623 568.295 68.2511 533.297 87.6624 C 584.839 107.735 515.563 78.4601 498.3 107.074 C 463.303 126.485 454.813 158.921 481.037 135.687 C 463.773 164.301 492.035 158.961 507.26 112.453 C 533.484 89.2189 514.809 26.6893 522.486 65.9449 C 537.711 19.4369 530.163 105.201 530.163 105.201 "/>
<path d="M 62.9534 219.417 C 62.9534 219.417 11.4118 199.345 81.7557 167.59 C 152.1 135.835 116.753 148.179 133.297 187.662 C 149.842 227.146 150.561 159.049 98.3 207.074 C 46.0393 255.098 72.0764 230.308 81.0367 235.687 C 89.9969 241.066 65.8114 282.195 107.26 212.453 C 148.709 142.711 99.5832 173.197 122.486 165.945 C 145.388 158.693 130.163 205.201 130.163 205.201 "/>
<path d="M 162.953 219.417 C 162.953 219.417 128.998 191.406 181.756 167.59 C 234.514 143.774 220.889 158.05 233.297 187.662 C 245.706 217.275 237.496 171.055 198.3 207.074 C 159.105 243.092 174.316 231.653 181.037 235.687 C 187.757 239.722 176.174 264.76 207.26 212.453 C 238.347 160.146 205.309 171.384 222.486 165.945 C 239.662 160.506 230.163 205.201 230.163 205.201 "/>
<path d="M 262.953 219.417 C 262.953 219.417 246.584 183.467 281.756 167.59 C 316.928 151.712 325.025 167.921 333.297 187.662 C 341.569 207.404 324.43 183.061 298.3 207.074 C 272.17 231.086 276.557 232.997 281.037 235.687 C 285.517 238.377 286.536 247.324 307.26 212.453 C 327.985 177.582 311.034 169.571 322.486 165.945 C 333.937 162.319 330.163 205.201 330.163 205.201 "/>
<path d="M 362.953 219.417 C 362.953 219.417 364.17 175.529 381.756 167.59 C 399.342 159.651 429.161 177.791 433.297 187.662 C 437.433 197.533 411.365 195.067 398.3 207.074 C 385.235 219.08 378.797 234.342 381.037 235.687 C 383.277 237.032 396.898 229.888 407.26 212.453 C 417.622 195.017 416.76 167.758 422.486 165.945 C 428.211 164.132 430.163 205.201 430.163 205.201 "/>
<path d="M 462.953 219.417 C 462.953 219.417 481.756 167.59 481.756 167.59 C 481.756 167.59 533.297 187.662 533.297 187.662 C 533.297 187.662 498.3 207.074 498.3 207.074 C 498.3 207.074 481.037 235.687 481.037 235.687 C 481.037 235.687 507.26 212.453 507.26 212.453 C 507.26 212.453 522.486 165.945 522.486 165.945 C 522.486 165.945 530.163 205.201 530.163 205.201 "/>
<path d="M 62.9534 319.417 C 62.9534 319.417 30.2141 247.517 81.7557 267.59 C 133.297 287.662 168.295 268.251 133.297 287.662 C 98.3 307.074 115.563 278.46 98.3 307.074 C 81.0367 335.687 54.8131 358.921 81.0367 335.687 C 107.26 312.453 92.0349 358.961 107.26 312.453 C 122.486 265.945 114.809 226.689 122.486 265.945 C 130.163 305.201 130.163 305.201 130.163 305.201 "/>
<path d="M 162.953 319.417 C 162.953 319.417 138.399 265.492 181.756 267.59 C 225.113 269.687 246.66 268.086 233.297 287.662 C 219.935 307.239 219.997 280.761 198.3 307.074 C 176.603 333.386 165.685 345.959 181.037 335.687 C 196.389 325.415 189.285 353.143 207.26 312.453 C 225.235 271.763 212.921 248.13 222.486 265.945 C 232.05 283.76 230.163 305.201 230.163 305.201 "/>
<path d="M 262.953 319.417 C 262.953 319.417 246.584 283.467 281.756 267.59 C 316.928 251.712 325.025 267.921 333.297 287.662 C 341.569 307.404 324.43 283.061 298.3 307.074 C 272.17 331.086 276.557 332.997 281.037 335.687 C 285.517 338.377 286.536 347.324 307.26 312.453 C 327.985 277.582 311.034 269.571 322.486 265.945 C 333.937 262.319 330.163 305.201 330.163 305.201 "/>
<path d="M 362.953 319.417 C 362.953 319.417 354.769 301.442 381.756 267.59 C 408.743 233.737 403.39 267.755 433.297 287.662 C 463.204 307.57 428.864 285.362 398.3 307.074 C 367.736 328.785 387.428 320.035 381.037 335.687 C 374.645 351.339 383.786 341.506 407.26 312.453 C 430.734 283.4 409.147 291.012 422.486 265.945 C 435.824 240.878 430.163 305.201 430.163 305.201 "/>
<path d="M 462.953 319.417 C 462.953 319.417 462.953 319.417 481.756 267.59 C 500.558 215.762 481.756 267.59 533.297 287.662 C 584.839 307.735 533.297 287.662 498.3 307.074 C 463.303 326.485 498.3 307.074 481.037 335.687 C 463.773 364.301 481.037 335.687 507.26 312.453 C 533.484 289.219 507.26 312.453 522.486 265.945 C 537.711 219.437 530.163 305.201 530.163 305.201 "/>
</g>
<g id="node" style="fill:#000000;fill-opacity:1;fill-rule:evenodd;stroke:none">
<circle cx="  63.0" cy=" 119.4" r="2.5"/>
<circle cx="  81.8" cy="  67.6" r="2.5"/>
<circle cx=" 133.3" cy="  87.7" r="2.5"/>
<circle cx="  98.3" cy=" 107.1" r="2.5"/>
<circle cx="  81.0" cy=" 135.7" r="2.5"/>
<circle cx=" 107.3" cy=" 112.5" r="2.5"/>
<circle cx=" 122.5" cy="  65.9" r="2.5"/>
<circle cx=" 130.2" cy=" 105.2" r="2.5"/>
<circle cx=" 163.0" cy=" 119.4" r="2.5"/>
<circle cx=" 181.8" cy="  67.6" r="2.5"/>
<circle cx=" 233.3" cy="  87.7" r="2.5"/>
<circle cx=" 198.3" cy=" 107.1" r="2.5"/>
<circle cx=" 181.0" cy=" 135.7" r="2.5"/>
<circle cx=" 207.3" cy=" 112.5" r="2.5"/>
<circle cx=" 222.5" cy="  65.9" r="2.5"/>
<circle cx=" 230.2" cy=" 105.2" r="2.5"/>
<circle cx=" 263.0" cy=" 119.4" r="2.5"/>
<circle cx=" 281.8" cy="  67.6" r="2.5"/>
<circle cx=" 333.3" cy="  87.7" r="2.5"/>
<circle cx=" 298.3" cy=" 107.1" r="2.5"/>
<circle cx=" 281.0" cy=" 135.7" r="2.5"/>
<circle cx=" 307.3" cy=" 112.5" r="2.5"/>
<circle cx=" 322.5" cy="  65.9" r="2.5"/>
<circle cx=" 330.2" cy=" 105.2" r="2.5"/>
<circle cx=" 363.0" cy=" 119.4" r="2.5"/>
<circle cx=" 381.8" cy="  67.6" r="2.5"/>
<circle cx=" 433.3" cy="  87.7" r="2.5"/>
<circle cx=" 398.3" cy=" 107.1" r="2.5"/>
<circle cx=" 381.0" cy=" 135.7" r="2.5"/>
<circle cx=" 407.3" cy=" 112.5" r="2.5"/>
<circle cx=" 422.5" cy="  65.9" r="2.5"/>
<circle cx=" 430.2" cy=" 105.2" r="2.5"/>
<circle cx=" 463.0" cy=" 119.4" r="2.5"/>
<circle cx=" 481.8" cy="  67.6" r="2.5"/>
<circle cx=" 533.3" cy="  87.7" r="2.5"/>
<circle cx=" 498.3" cy=" 107.1" r="2.5"/>
<circle cx=" 481.0" cy=" 135.7" r="2.5"/>
<circle cx=" 507.3" cy=" 112.5" r="2.5"/>
<circle cx=" 522.5" cy="  65.9" r="2.5"/>
<circle cx=" 530.2" cy=" 105.2" r="2.5"/>
<circle cx="  63.0" cy=" 219.4" r="2.5"/>
<circle cx="  81.8" cy=" 167.6" r="2.5"/>
<circle cx=" 133.3" cy=" 187.7" r="2.5"/>
<circle cx="  98.3" cy=" 207.1" r="2.5"/>
<circle cx="  81.0" cy=" 235.7" r="2.5"/>
<circle cx=" 107.3" cy=" 212.5" r="2.5"/>
<circle cx=" 122.5" cy=" 165.9" r="2.5"/>
<circle cx=" 130.2" cy=" 205.2" r="2.5"/>
<circle cx=" 163.0" cy=" 219.4" r="2.5"/>
<circle cx=" 181.8" cy=" 167.6" r="2.5"/>
<circle cx=" 233.3" cy=" 187.7" r="2.5"/>
<circle cx=" 198.3" cy=" 207.1" r="2.5"/>
<circle cx=" 181.0" cy=" 235.7" r="2.5"/>
<circle cx=" 207.3" cy=" 212.5" r="2.5"/>
<circle cx=" 222.5" cy=" 165.9" r="2.5"/>
<circle cx=" 230.2" cy=" 205.2" r="2.5"/>
<circle cx=" 263.0" cy=" 219.4" r="2.5"/>
<circle cx=" 281.8" cy=" 167.6" r="2.5"/>
<circle cx=" 333.3" cy=" 187.7" r="2.5"/>
<circle cx=" 298.3" cy=" 207.1" r="2.5"/>
<circle cx=" 281.0" cy=" 235.7" r="2.5"/>
<circle cx=" 307.3" cy=" 212.5" r="2.5"/>
<circle cx=" 322.5" cy=" 165.9" r="2.5"/>
<circle cx=" 330.2" cy=" 205.2" r="2.5"/>
<circle cx=" 363.0" cy=" 219.4" r="2.5"/>
<circle cx=" 381.8" cy=" 167.6" r="2.5"/>
<circle cx=" 433.3" cy=" 187.7" r="2.5"/>
<circle cx=" 398.3" cy=" 207.1" r="2.5"/>
<circle cx=" 381.0" cy=" 235.7" r="2.5"/>
<circle cx=" 407.3" cy=" 212.5" r="2.5"/>
<circle cx=" 422.5" cy=" 165.9" r="2.5"/>
<circle cx=" 430.2" cy=" 205.2" r="2.5"/>
<circle cx=" 463.0" cy=" 219.4" r="2.5"/>
<circle cx=" 481.8" cy=" 167.6" r="2.5"/>
<circle cx=" 533.3" cy=" 187.7" r="2.5"/>
<circle cx=" 498.3" cy=" 207.1" r="2.5"/>
<circle cx=" 481.0" cy=" 235.7" r="2.5"/>
<circle cx=" 507.3" cy=" 212.5" r="2.5"/>
<circle cx=" 522.5" cy=" 165.9" r="2.5"/>
<circle cx=" 530.2" cy=" 205.2" r="2.5"/>
<circle cx="  63.0" cy=" 319.4" r="2.5"/>
<circle cx="  81.8" cy=" 267.6" r="2.5"/>
<circle cx=" 133.3" cy=" 287.7" r="2.5"/>
<circle cx="  98.3" cy=" 307.1" r="2.5"/>
<circle cx="  81.0" cy=" 335.7" r="2.5"/>
<circle cx=" 107.3" cy=" 312.5" r="2.5"/>
<circle cx=" 122.5" cy=" 265.9" r="2.5"/>
<circle cx=" 130.2" cy=" 305.2" r="2.5"/>
<circle cx=" 163.0" cy=" 319.4" r="2.5"/>
<circle cx=" 181.8" cy=" 267.6" r="2.5"/>
<circle cx=" 233.3" cy=" 287.7" r="2.5"/>
<circle cx=" 198.3" cy=" 307.1" r="2.5"/>
<circle cx=" 181.0" cy=" 335.7" r="2.5"/>
<circle cx=" 207.3" cy=" 312.5" r="2.5"/>
<circle cx=" 222.5" cy=" 265.9" r="2.5"/>
<circle cx=" 230.2" cy=" 305.2" r="2.5"/>
<circle cx=" 263.0" cy=" 319.4" r="2.5"/>
<circle cx=" 281.8" cy=" 267.6" r="2.5"/>
<circle cx=" 333.3" cy=" 287.7" r="2.5"/>
<circle cx=" 298.3" cy=" 307.1" r="2.5"/>
<circle cx=" 281.0" cy=" 335.7" r="2.5"/>
<circle cx=" 307.3" cy=" 312.5" r="2.5"/>
<circle cx=" 322.5" cy=" 265.9" r="2.5"/>
<circle cx=" 330.2" cy=" 305.2" r="2.5"/>
<circle cx=" 363.0" cy=" 319.4" r="2.5"/>
<circle cx=" 381.8" cy=" 267.6" r="2.5"/>
<circle cx=" 433.3" cy=" 287.7" r="2.5"/>
<circle cx=" 398.3" cy=" 307.1" r="2.5"/>
<circle cx=" 381.0" cy=" 335.7" r="2.5"/>
<circle cx=" 407.3" cy=" 312.5" r="2.5"/>
<circle cx=" 422.5" cy=" 265.9" r="2.5"/>
<circle cx=" 430.2" cy=" 305.2" r="2.5"/>
<circle cx=" 463.0" cy=" 319.4" r="2.5"/>
<circle cx=" 481.8" cy=" 267.6" r="2.5"/>
<circle cx=" 533.3" cy=" 287.7" r="2.5"/>
<circle cx=" 498.3" cy=" 307.1" r="2.5"/>
<circle cx=" 481.0" cy=" 335.7" r="2.5"/>
<circle cx=" 507.3" cy=" 312.5" r="2.5"/>
<circle cx=" 522.5" cy=" 265.9" r="2.5"/>
<circle cx=" 530.2" cy=" 305.2" r="2.5"/>
</g>

<g id="text" style="fill:#000000;fill-opacity:1;stroke:none;">
  <path d="M 91.761719,28.21875 L 91.761719,26.097656 L 98.242188,26.097656 L 98.242188,28.21875 L 91.761719,28.21875 M 107.95703,33.375 L 105.84766,33.375 L 105.84766,19.933594 C 105.33984,20.417982 104.67187,20.902356 103.84375,21.386719 C 103.02343,21.871105 102.28515,22.234386 101.62891,22.476563 L 101.62891,20.4375 C 102.80859,19.882826 103.83984,19.210952 104.72266,18.421875 C 105.60546,17.632828 106.23046,16.867204 106.59766,16.125 L 107.95703,16.125 L 107.95703,33.375"/>
  <path d="M 180.0459,27.925781 L 180.0459,25.804688 L 186.52637,25.804688 L 186.52637,27.925781 L 180.0459,27.925781 M 188.2959,24.609375 C 188.2959,22.578136 188.50293,20.945325 188.91699,19.710938 C 189.33887,18.468765 189.95996,17.511734 190.78027,16.839844 C 191.60839,16.167986 192.64746,15.832049 193.89746,15.832031 C 194.81933,15.832049 195.62792,16.019548 196.32324,16.394531 C 197.01854,16.761735 197.59276,17.296891 198.0459,18 C 198.49901,18.695327 198.85448,19.546889 199.1123,20.554688 C 199.37011,21.554699 199.49901,22.90626 199.49902,24.609375 C 199.49901,26.625006 199.29198,28.253911 198.87793,29.496094 C 198.46386,30.730471 197.84276,31.687501 197.01465,32.367188 C 196.19433,33.039063 195.15527,33.375 193.89746,33.375 C 192.24121,33.375 190.94043,32.78125 189.99512,31.59375 C 188.8623,30.164065 188.2959,27.835943 188.2959,24.609375 M 190.46387,24.609375 C 190.46386,27.429693 190.79199,29.308598 191.44824,30.246094 C 192.1123,31.175783 192.92871,31.640626 193.89746,31.640625 C 194.8662,31.640626 195.6787,31.171877 196.33496,30.234375 C 196.99901,29.296879 197.33104,27.421881 197.33105,24.609375 C 197.33104,21.781261 196.99901,19.902357 196.33496,18.972656 C 195.6787,18.042984 194.85839,17.578141 193.87402,17.578125 C 192.90527,17.578141 192.13183,17.988296 191.55371,18.808594 C 190.82714,19.855482 190.46386,21.789074 190.46387,24.609375 M 202.83887,33.082031 L 202.83887,30.679688 L 205.24121,30.679688 L 205.24121,33.082031 L 202.83887,33.082031 M 208.31152,28.582031 L 210.52637,28.394531 C 210.69043,29.47266 211.06933,30.285159 211.66309,30.832031            C 212.26464,31.371095 212.9873,31.640626 213.83105,31.640625 C 214.84667,31.640626 215.70605,31.257814 216.40918,30.492188 C 217.11229,29.726566 217.46386,28.710942 217.46387,27.445313 C 217.46386,26.242194 217.12401,25.292977 216.44434,24.597656 C 215.77245,23.902353 214.88964,23.554697 213.7959,23.554688 C 213.11621,23.554697 212.50292,23.710947 211.95605,24.023438 C 211.40918,24.328134 210.97949,24.726571 210.66699,25.21875 L 208.68652,24.960938 L 210.35059,16.136719 L 218.89355,16.136719 L 218.89355,18.152344 L 212.03809,18.152344 L 211.1123,22.769531 C 212.14355,22.050792 213.22558,21.691418 214.3584,21.691406 C 215.85839,21.691418 217.12401,22.210948 218.15527,23.25 C 219.18651,24.289071 219.70214,25.625007 219.70215,27.257813 C 219.70214,28.812504 219.24901,30.156253 218.34277,31.289063 C 217.2412,32.679688 215.7373,33.375 213.83105,33.375 C 212.26855,33.375 210.99121,32.9375 209.99902,32.0625 C 209.01465,31.187502 208.45215,30.027347 208.31152,28.582031"/>
  <path d="M 294.28711,24.609375 C 294.28711,22.578136 294.49414,20.945325 294.9082,19.710938 C 295.33008,18.468765 295.95117,17.511734 296.77148,16.839844 C 297.59961,16.167986 298.63867,15.832049 299.88867,15.832031 C 300.81054,15.832049 301.61913,16.019548 302.31445,16.394531 C 303.00976,16.761735 303.58397,17.296891 304.03711,18 C 304.49022,18.695327 304.84569,19.546889 305.10352,20.554688 C 305.36132,21.554699 305.49022,22.90626 305.49023,24.609375 C 305.49022,26.625006 305.28319,28.253911 304.86914,29.496094 C 304.45507,30.730471 303.83397,31.687501 303.00586,32.367188 C 302.18554,33.039063 301.14648,33.375 299.88867,33.375 C 298.23242,33.375 296.93164,32.78125 295.98633,31.59375 C 294.85351,30.164065 294.28711,27.835943 294.28711,24.609375 M 296.45508,24.609375 C 296.45507,27.429693 296.7832,29.308598 297.43945,30.246094 C 298.10351,31.175783 298.91992,31.640626 299.88867,31.640625 C 300.85741,31.640626 301.66991,31.171877 302.32617,30.234375 C 302.99022,29.296879 303.32226,27.421881 303.32227,24.609375 C 303.32226,21.781261 302.99022,19.902357 302.32617,18.972656 C 301.66991,18.042984 300.8496,17.578141 299.86523,17.578125 C 298.89648,17.578141 298.12304,17.988296 297.54492,18.808594 C 296.81836,19.855482 296.45507,21.789074 296.45508,24.609375"/>
  <path d="M 503.08203,33.375 L 500.97266,33.375 L 500.97266,19.933594 C 500.46484,20.417982 499.79687,20.902356 498.96875,21.386719 C 498.14843,21.871105 497.41015,22.234386 496.75391,22.476563 L 496.75391,20.4375 C 497.93359,19.882826 498.96484,19.210952 499.84766,18.421875 C 500.73046,17.632828 501.35546,16.867204 501.72266,16.125 L 503.08203,16.125 L 503.08203,33.375"/>
  <path d="M 27.091797,99.333984 L 29.566406,99.59375 C 28.946602,101.40756 28.062488,102.75651 26.914063,103.64063 C 25.77473,104.51563 24.475903,104.95312 23.017578,104.95313 C 21.44075,104.95312 20.160152,104.44271 19.175781,103.42188 C 18.200519,102.40104 17.712889,100.97461 17.712891,99.142578 C 17.712889,97.556648 18.027342,95.998056 18.65625,94.466797 C 19.285153,92.935559 20.182939,91.77345 21.349609,90.980469 C 22.525384,90.1784 23.865227,89.777359 25.369141,89.777344 C 26.927724,89.777359 28.162748,90.219415 29.074219,91.103516 C 29.985663,91.978528 30.441392,93.140636 30.441406,94.589844 L 28.007813,94.753906 C 27.998686,93.833344 27.729806,93.113293 27.201172,92.59375 C 26.68163,92.074231 25.99348,91.814466 25.136719,91.814453 C 24.143221,91.814466 23.281894,92.128919 22.552734,92.757813 C 21.823562,93.38673 21.249344,94.34376 20.830078,95.628906 C 20.419918,96.904956 20.21484,98.135423 20.214844,99.320313 C 20.21484,100.5599 20.488277,101.48959 21.035156,102.10938 C 21.582026,102.72917 22.256504,103.03906 23.058594,103.03906 C 23.860669,103.03906 24.626294,102.73373 25.355469,102.12305 C 26.09374,101.51237 26.672516,100.58269 27.091797,99.333984"/>
  <path d="M 25.505859,204.33203 L 25.095703,206.35547 C 24.503249,206.51042 23.929031,206.58789 23.373047,206.58789 C 22.388668,206.58789 21.604815,206.34635 21.021484,205.86328 C 20.583983,205.4987 20.365233,205.00195 20.365234,204.37305 C 20.365233,204.05404 20.483722,203.32032 20.720703,202.17188 L 22.484375,193.73633 L 20.529297,193.73633 L 20.925781,191.82227 L 22.880859,191.82227 L 23.632813,188.25391 L 26.462891,186.54492 L 25.355469,191.82227 L 27.789063,191.82227 L 27.378906,193.73633 L 24.958984,193.73633 L 23.277344,201.76172 C 23.067704,202.78256 22.962886,203.39323 22.962891,203.59375 C 22.962886,203.88542 23.044918,204.10873 23.208984,204.26367 C 23.382157,204.41862 23.660151,204.4961 24.042969,204.49609 C 24.589838,204.4961 25.077468,204.44141 25.505859,204.33203"/>
  <path d="M 17.049805,305.625 L 21.233398,285.58203 L 23.708008,285.58203 L 22.217773,292.74609 C 23.001621,292.02606 23.712558,291.5202 24.350586,291.22852 C 24.988598,290.92775 25.653962,290.77736 26.34668,290.77734 C 27.704741,290.77736 28.834948,291.28322 29.737305,292.29492 C 30.648748,293.30665 31.104477,294.77866 31.104492,296.71094 C 31.104477,297.9961 30.922186,299.17188 30.557617,300.23828 C 30.19302,301.30469 29.741848,302.20248 29.204102,302.93164 C 28.666329,303.65169 28.11034,304.23047 27.536133,304.66797 C 26.961903,305.09635 26.374013,305.41536 25.772461,305.625 C 25.170889,305.84375 24.592114,305.95312 24.036133,305.95313 C 23.079095,305.95312 22.235996,305.70247 21.506836,305.20117 C 20.777665,304.69076 20.208004,303.91602 19.797852,302.87695 L 19.223633,305.625 L 17.049805,305.625 M 20.713867,299.66406 L 20.700195,300.12891 C 20.700191,301.36849 20.996414,302.31185 21.588867,302.95898 C 22.181309,303.60612 22.91959,303.92969 23.803711,303.92969 C 24.669588,303.92969 25.462556,303.62891 26.182617,303.02734 C 26.911773,302.41667 27.508778,301.46875 27.973633,300.18359 C 28.438464,298.89844 28.670886,297.71355 28.670898,296.62891 C 28.670886,295.40756 28.374662,294.45965 27.782227,293.78516 C 27.198882,293.11069 26.474273,292.77345 25.608398,292.77344 C 24.715161,292.77345 23.894849,293.1198 23.147461,293.8125 C 22.400059,294.4961 21.77571,295.5534 21.274414,296.98438 C 20.900711,298.05079 20.713863,298.94402 20.713867,299.66406"/>
  <path d="m 383.4859,24.540016 c 0,-2.031239 0.20898,-3.666003 0.62695,-4.904297 0.41797,-1.238266 1.03906,-2.193344 1.86329,-2.865234 0.82421,-0.671858 1.86132,-1.007795 3.11132,-1.007813 0.92187,1.8e-5 1.73046,0.185564 2.42578,0.556641 0.69531,0.37111 1.26953,0.906266 1.72266,1.605469 0.45311,0.699233 0.80858,1.550795 1.06641,2.554687 0.2578,1.003918 0.3867,2.357432 0.38672,4.060547 -2e-5,2.015632 -0.20705,3.642583 -0.6211,4.88086 -0.41407,1.238283 -1.03321,2.195313 -1.85742,2.871093 -0.82423,0.675782 -1.86524,1.013672 -3.12305,1.013672 -1.65625,0 -2.95703,-0.59375 -3.90234,-1.78125 -1.13281,-1.429684 -1.69922,-3.757807 -1.69922,-6.984375 z m 2.16797,0 c 0,2.820318 0.33007,4.69727 0.99023,5.63086 0.66016,0.933595 1.47461,1.400392 2.44336,1.40039 0.96875,2e-6 1.7832,-0.468748 2.44336,-1.40625 0.66015,-0.937496 0.99023,-2.812494 0.99024,-5.625 -10e-6,-2.828114 -0.33009,-4.707018 -0.99024,-5.636719 -0.66016,-0.929672 -1.48243,-1.394515 -2.46679,-1.394531 -0.96876,1.6e-5 -1.7422,0.410172 -2.32032,1.230469 -0.72656,1.046888 -1.08984,2.98048 -1.08984,5.800781 z"/>
  <path d="m 398.02887,33.012672 0,-2.402343 2.40234,0 0,2.402343 z"/>
  <path d="m 403.50153,28.512672 2.21484,-0.1875 c 0.16406,1.078129 0.54492,1.888675 1.14258,2.431641 0.59765,0.542971 1.31835,0.814455 2.16211,0.814453 1.01561,2e-6 1.87499,-0.382811 2.57812,-1.148437 0.70312,-0.765622 1.05468,-1.781246 1.05469,-3.046875 -10e-6,-1.203118 -0.3379,-2.152336 -1.01367,-2.847657 -0.67579,-0.695303 -1.56056,-1.042959 -2.6543,-1.042968 -0.67969,9e-6 -1.29297,0.154306 -1.83984,0.46289 -0.54688,0.308603 -0.97657,0.708993 -1.28907,1.201172 l -1.98046,-0.257812 1.66406,-8.824219 8.54297,0 0,2.015625 -6.85547,0 -0.92578,4.617187 c 1.03124,-0.718739 2.11327,-1.078113 3.24609,-1.078125 1.49999,1.2e-5 2.76562,0.519543 3.79688,1.558594 1.03123,1.039071 1.54686,2.375008 1.54687,4.007813 -1e-5,1.554691 -0.45314,2.89844 -1.35937,4.03125 -1.10158,1.390625 -2.60548,2.085937 -4.51172,2.085937 -1.56251,0 -2.8379,-0.4375 -3.82617,-1.3125 -0.98829,-0.874998 -1.55274,-2.035153 -1.69336,-3.480469 z"/>
</g>
</svg>